<?xml version="1.0" standalone="no"?><!DOCTYPE svg PUBLIC "-//W3C//DTD SVG 1.1//EN" "http://www.w3.org/Graphics/SVG/1.1/DTD/svg11.dtd"><svg class="icon" width="200px" height="199.61px" viewBox="0 0 1026 1024" version="1.1" xmlns="http://www.w3.org/2000/svg"><path fill="#ffffff" d="M875 1024H100A100 100 0 0 1 0 924V149A100 100 0 0 1 100 49h433a40 40 0 0 1 0 80H100a20 20 0 0 0-20 20v775a20 20 0 0 0 20 20h775a20 20 0 0 0 20-20V500a40 40 0 1 1 80 0v424a100 100 0 0 1-100 100z"  /><path fill="#ffffff" d="M288 771a40 40 0 0 1-40-45l27-236a40 40 0 0 1 11-24L724 29a100 100 0 0 1 141 0l132 132a100 100 0 0 1 0 141L560 739a40 40 0 0 1-25 12l-244 20z m65-258l-20 174 180-15 427-426a20 20 0 0 0 0-28L808 86a20 20 0 0 0-28 0z"  /><path fill="#ffffff" d="M861 383a40 40 0 0 1-28-12L644 184a40.305 40.305 0 0 1 57-57l188 188a40 40 0 0 1-28 68zM538 706a40 40 0 0 1-28-12L322 506a40.305 40.305 0 0 1 57-57l188 189a40 40 0 0 1-28 68z"  /></svg>