<?xml version="1.0" standalone="no"?><!DOCTYPE svg PUBLIC "-//W3C//DTD SVG 1.1//EN" "http://www.w3.org/Graphics/SVG/1.1/DTD/svg11.dtd"><svg class="icon" width="200px" height="200.00px" viewBox="0 0 1024 1024" version="1.1" xmlns="http://www.w3.org/2000/svg"><path fill="#ffffff" d="M512 211.2c-249.6 0-448 140.8-448 320s198.4 320 448 320 448-140.8 448-320-198.4-320-448-320z m0 569.6c-211.2 0-384-115.2-384-256s172.8-256 384-256 384 115.2 384 256-172.8 256-384 256z"  /><path fill="#ffffff" d="M512 377.6C428.8 377.6 358.4 448 358.4 531.2s70.4 153.6 153.6 153.6c83.2 0 153.6-70.4 153.6-153.6S595.2 377.6 512 377.6z m0 256c-57.6 0-102.4-44.8-102.4-102.4S454.4 422.4 512 422.4c57.6 0 102.4 44.8 102.4 102.4S569.6 633.6 512 633.6z"  /></svg>