<?xml version="1.0" standalone="no"?><!DOCTYPE svg PUBLIC "-//W3C//DTD SVG 1.1//EN" "http://www.w3.org/Graphics/SVG/1.1/DTD/svg11.dtd"><svg class="icon" width="200px" height="200.00px" viewBox="0 0 1024 1024" version="1.1" xmlns="http://www.w3.org/2000/svg"><path fill="#ffffff" d="M512.375042 488.901932c-33.487695 0-64.98813-13.045107-88.680738-36.724413-48.877197-48.877197-48.877197-128.403438 0-177.280636 23.679305-23.679305 55.180763-36.725436 88.666412-36.725436l0 0c33.500998 0 64.98813 13.046131 88.654132 36.725436 48.878221 48.877197 48.878221 128.403438 0 177.280636C577.348845 475.856825 545.862737 488.901932 512.375042 488.901932zM512.360715 292.753577c-18.908652 0-36.684504 7.355525-50.076512 20.73423-27.596522 27.596522-27.596522 72.503291 0 100.099812 13.392008 13.365402 31.16786 20.73423 50.089815 20.73423 18.909675 0 36.685527-7.368828 50.049906-20.73423 27.597545-27.596522 27.597545-72.503291 0-100.099812C549.046243 300.109102 531.270391 292.753577 512.360715 292.753577zM692.866812 335.340511c-6.182816 0-11.780301-4.224208-13.271258-10.513448-1.027399-4.343935-1.706875-7.502881-2.226714-9.940396-0.892323-4.184299-1.131777-5.223978-1.771343-6.689353-2.970658-6.928806 0.227174-14.950504 7.141654-17.935488 6.888897-2.905166 14.951527 0.212848 17.935488 7.141654 1.705851 3.970428 2.332115 6.903224 3.371794 11.752672 0.505513 2.305509 1.14508 5.290493 2.118244 9.407254 1.732457 7.328919-2.812045 14.684444-10.153244 16.416901C694.959473 335.220784 693.906491 335.340511 692.866812 335.340511zM668.175457 276.655947c-4.516874 0-8.94165-2.238994-11.539824-6.330172-28.249391-44.533262-74.355475-74.15593-126.510322-81.257675-7.476275-1.026376-12.69923-7.90197-11.68718-15.363919 1.026376-7.475252 7.862062-12.672624 15.364943-11.686157 60.149938 8.207939 113.318882 42.348504 145.884578 93.677543 4.037966 6.370081 2.146896 14.804171-4.209882 18.842137C673.198867 275.976472 670.679487 276.655947 668.175457 276.655947zM512.081353 958.709995c-22.798239 0-66.306148-10.369162-101.538581-79.81993-40.828894-80.459496-192.805214-415.186024-192.805214-520.602935 0-161.556513 131.441635-292.998147 293.01145-292.998147 161.557536 0 292.998147 131.440611 292.998147 292.998147 0 104.244202-151.576207 443.263499-190.299137 520.497535C587.596234 930.325527 551.604508 958.709995 512.081353 958.709995zM510.749008 119.870088c-131.468241 0-238.430344 106.949824-238.430344 238.417041 0 82.830497 132.653229 389.002688 186.901761 495.898277 16.096607 31.740912 35.365462 49.944506 52.860928 49.944506 17.284665 0 36.939307-18.629289 52.569286-49.810453 47.425126-94.557586 184.515411-411.948283 184.515411-496.031307C749.166049 226.819912 642.217249 119.870088 510.749008 119.870088z" /></svg>