<?xml version="1.0" standalone="no"?><!DOCTYPE svg PUBLIC "-//W3C//DTD SVG 1.1//EN" "http://www.w3.org/Graphics/SVG/1.1/DTD/svg11.dtd"><svg class="icon" width="200px" height="200.00px" viewBox="0 0 1024 1024" version="1.1" xmlns="http://www.w3.org/2000/svg"><path d="M525.198222 619.861333m-110.250666 0a110.250667 110.250667 0 1 0 220.501333 0 110.250667 110.250667 0 1 0-220.501333 0Z" fill="#A3A3A3" /><path d="M561.265778 583.907556m-115.484445 0a115.484444 115.484444 0 1 0 230.968889 0 115.484444 115.484444 0 1 0-230.968889 0Z" fill="#FFD44D" /><path d="M462.620444 600.860444c-3.299556 0-5.916444 2.730667-5.916444 6.030223s2.730667 5.916444 6.144 5.916444c3.299556 0 5.916444-2.730667 5.916444-6.030222-0.113778-3.299556-2.844444-5.916444-6.144-5.916445zM461.824 552.96c3.299556 0 5.916444-2.730667 5.916444-6.030222s-2.730667-5.916444-6.030222-5.916445-5.916444 2.730667-5.916444 6.030223 2.730667 6.030222 6.030222 5.916444zM552.163556 581.404444c3.299556 0 5.916444-2.730667 5.916444-6.030222s-2.730667-5.916444-6.144-5.916444c-3.299556 0-5.916444 2.730667-5.916444 6.030222 0.113778 3.413333 2.844444 6.030222 6.144 5.916444zM582.542222 610.872889c3.299556 0 5.916444-2.730667 5.916445-6.030222s-2.730667-5.916444-6.030223-5.916445-5.916444 2.730667-5.916444 6.030222 2.730667 6.030222 6.030222 5.916445zM581.632 551.025778c3.299556 0 5.916444-2.730667 5.916444-6.030222s-2.730667-5.916444-6.030222-5.916445-5.916444 2.730667-5.916444 6.030222 2.730667 5.916444 6.030222 5.916445zM522.695111 611.896889c3.299556 0 5.916444-2.730667 5.916445-6.030222s-2.730667-5.916444-6.030223-5.916445-5.916444 2.730667-5.916444 6.030222 2.730667 5.916444 6.030222 5.916445zM521.784889 552.049778c3.299556 0 5.916444-2.730667 5.916444-6.030222s-2.730667-5.916444-6.030222-5.916445-5.916444 2.730667-5.916444 6.030222c-0.113778 3.299556 2.616889 5.916444 6.030222 5.916445zM492.316444 582.428444c3.299556 0 5.916444-2.730667 5.916445-6.030222s-2.730667-5.916444-6.030222-5.916444-5.916444 2.730667-5.916445 6.030222 2.730667 5.916444 6.030222 5.916444zM586.524444 485.034667c0-3.299556-2.730667-5.916444-6.030222-5.916445s-5.916444 2.730667-5.916444 6.144c0 3.299556 2.730667 5.916444 6.144 5.916445 3.185778-0.113778 5.802667-2.844444 5.802666-6.144zM526.677333 486.058667c0-3.299556-2.730667-5.916444-6.030222-5.916445s-5.916444 2.730667-5.916444 6.030222 2.730667 5.916444 6.144 5.916445c3.185778 0 5.802667-2.730667 5.802666-6.030222zM556.600889 517.802667c0.341333-0.682667 0.455111-1.479111 0.455111-2.389334 0-1.479111-0.568889-2.730667-1.479111-3.754666-0.113778-0.113778-0.227556-0.341333-0.341333-0.455111-1.137778-1.024-2.616889-1.706667-4.209778-1.706667-1.706667 0-3.185778 0.682667-4.209778 1.820444-0.227556 0.227556-0.455111 0.568889-0.682667 0.910223-0.682667 0.910222-1.024 2.161778-1.024 3.413333 0 0.796444 0.227556 1.592889 0.455111 2.275555 0.910222 2.161778 3.072 3.640889 5.575112 3.527112 2.503111 0.113778 4.664889-1.479111 5.461333-3.640889zM491.292444 522.581333c2.503111 0 4.551111-1.592889 5.461334-3.754666 0.341333-0.682667 0.455111-1.479111 0.455111-2.389334 0-1.024-0.341333-2.048-0.796445-2.844444l-1.024-1.365333c-1.137778-1.024-2.616889-1.706667-4.209777-1.706667-1.706667 0-3.185778 0.682667-4.209778 1.820444-0.227556 0.227556-0.455111 0.568889-0.682667 0.910223-0.682667 0.910222-1.024 2.161778-1.024 3.413333 0 0.796444 0.227556 1.592889 0.455111 2.275555 0.910222 2.161778 3.072 3.640889 5.575111 3.640889zM665.827556 573.553778c0 2.161778 1.251556 3.982222 2.958222 5.006222-0.227556-3.185778-0.568889-6.371556-1.024-9.443556-1.251556 1.137778-1.934222 2.730667-1.934222 4.437334zM642.503111 609.848889c3.299556 0 5.916444-2.730667 5.916445-6.030222s-2.730667-5.916444-6.030223-5.916445-5.916444 2.730667-5.916444 6.030222c-0.113778 3.413333 2.616889 6.030222 6.030222 5.916445zM641.479111 550.001778c3.299556 0 5.916444-2.730667 5.916445-6.030222s-2.730667-5.916444-6.030223-5.916445-5.916444 2.730667-5.916444 6.030222c0 3.413333 2.730667 6.030222 6.030222 5.916445zM612.010667 580.494222c3.299556 0 5.916444-2.730667 5.916444-6.030222s-2.730667-5.916444-6.030222-5.916444-5.916444 2.730667-5.916445 6.030222 2.730667 5.916444 6.030223 5.916444zM610.986667 520.647111c0.341333 0 0.568889 0 0.910222-0.113778 2.048-0.341333 3.754667-1.820444 4.551111-3.640889 0.341333-0.682667 0.455111-1.479111 0.455111-2.389333 0-1.024-0.341333-2.048-0.796444-2.844444l-1.024-1.365334c-1.137778-1.024-2.616889-1.706667-4.209778-1.706666-1.706667 0-3.185778 0.682667-4.209778 1.820444-0.227556 0.227556-0.455111 0.568889-0.682667 0.910222-0.682667 0.910222-1.024 2.161778-1.024 3.413334 0 0.796444 0.227556 1.592889 0.455112 2.275555 1.024 2.161778 3.185778 3.640889 5.575111 3.640889zM560.014222 695.068444c0-3.299556-2.730667-5.916444-6.144-5.916444-3.299556 0-5.916444 2.730667-5.916444 6.030222 0 1.706667 0.796444 3.185778 1.934222 4.209778 2.048 0.113778 3.982222 0.113778 6.030222 0.113778h1.934222c1.365333-0.910222 2.161778-2.616889 2.161778-4.437334zM583.566222 670.72c3.299556 0 5.916444-2.730667 5.916445-6.030222s-2.730667-5.916444-6.030223-5.916445-5.916444 2.730667-5.916444 6.144c0 3.299556 2.730667 5.916444 6.030222 5.802667zM523.719111 671.744c3.299556 0 5.916444-2.730667 5.916445-6.030222s-2.730667-5.916444-6.030223-5.916445-5.916444 2.730667-5.916444 6.144c0 3.185778 2.730667 5.802667 6.030222 5.802667zM549.888 640.455111c0.910222 0.568889 2.048 0.910222 3.185778 0.910222h0.568889c1.365333-0.113778 2.503111-0.796444 3.413333-1.706666 1.024-0.910222 1.592889-2.275556 1.820444-3.640889v-0.682667c0-1.024-0.341333-2.048-0.796444-2.844444-0.113778-0.113778-0.227556-0.341333-0.341333-0.455111-0.341333-0.455111-0.682667-0.910222-1.137778-1.251556-1.024-0.796444-2.389333-1.365333-3.868445-1.251556-0.796444 0-1.592889 0.227556-2.275555 0.455112-0.910222 0.341333-1.706667 1.024-2.275556 1.706666-0.113778 0.113778-0.227556 0.341333-0.341333 0.455111-0.682667 0.910222-1.024 2.161778-1.024 3.413334 0 0.227556 0 0.568889 0.113778 0.796444 0.455111 1.706667 1.479111 3.185778 2.958222 4.096zM490.382222 641.592889c0.910222 0.455111 1.820444 0.682667 2.844445 0.682667 1.479111 0 2.730667-0.568889 3.754666-1.365334 0.113778-0.113778 0.341333-0.227556 0.455111-0.455111 0.341333-0.341333 0.682667-0.796444 0.910223-1.251555 0.113778-0.113778 0.113778-0.341333 0.227555-0.455112 0-0.113778 0.113778-0.227556 0.113778-0.227555 0.113778-0.227556 0.227556-0.568889 0.227556-0.796445 0-0.113778 0.113778-0.227556 0.113777-0.455111 0-0.341333 0.113778-0.682667 0.113778-1.024 0-0.796444-0.227556-1.592889-0.455111-2.275555-0.910222-2.161778-3.072-3.640889-5.575111-3.527111-0.568889 0-1.251556 0.113778-1.820445 0.341333-0.341333 0.113778-0.682667 0.227556-1.024 0.455111-0.113778 0.113778-0.341333 0.227556-0.455111 0.341333-1.592889 1.137778-2.616889 2.958222-2.503111 5.006223 0 0.227556 0 0.568889 0.113778 0.796444 0.113778 1.706667 1.365333 3.413333 2.958222 4.209778zM637.383111 663.893333c0 0.341333 0 0.796444 0.113778 1.137778 2.161778-2.275556 4.323556-4.664889 6.371555-7.168h-0.568888c-3.413333 0-6.030222 2.730667-5.916445 6.030222zM607.232 636.245333c0.455111 1.365333 1.251556 2.389333 2.389333 3.185778 0.910222 0.682667 2.161778 1.024 3.413334 1.024 1.479111 0 2.730667-0.568889 3.754666-1.479111 1.251556-1.137778 2.161778-2.730667 2.048-4.664889 0-2.048-1.137778-3.868444-2.730666-4.892444-0.341333-0.227556-0.682667-0.341333-1.024-0.568889-0.341333-0.113778-0.682667-0.227556-1.137778-0.341334-0.341333-0.113778-0.796444-0.113778-1.251556-0.113777-0.568889 0-1.251556 0.113778-1.820444 0.341333-0.341333 0.113778-0.682667 0.227556-1.024 0.455111-0.113778 0.113778-0.341333 0.227556-0.455111 0.341333-1.592889 1.137778-2.616889 2.958222-2.503111 5.006223 0 0.568889 0.113778 1.137778 0.227555 1.592889 0.113778 0 0.113778 0 0.113778 0.113777z" fill="#231B3B" /><path d="M467.399111 511.544889c0 17.066667 13.767111 30.833778 30.833778 30.833778 17.066667 0 30.833778-13.767111 30.833778-30.833778 0-17.066667-13.767111-30.833778-30.833778-30.833778-17.066667 0-30.833778 13.880889-30.833778 30.833778z m0 0" fill="#FFFFFF" /><path d="M841.045333 918.072889c-8.760889 0-17.521778-3.299556-24.120889-10.012445l-629.191111-629.191111c-13.312-13.312-13.312-34.929778 0-48.241777s34.929778-13.312 48.241778 0l629.191111 629.191111c13.312 13.312 13.312 34.929778 0 48.241777-6.599111 6.712889-15.36 10.012444-24.120889 10.012445z" fill="#592B0C" /><path d="M591.303111 638.065778l-9.671111-9.671111c-14.336 8.647111-31.061333 13.539556-49.152 13.539555-54.954667 0-99.555556-44.714667-99.555556-99.555555 0-17.976889 4.778667-34.929778 13.198223-49.493334l-9.671111-9.671111-27.079112-26.965333-9.671111-9.671111c-20.48 27.989333-31.630222 61.212444-31.630222 95.800889 0 43.235556 17.294222 84.309333 48.696889 115.712C448.170667 689.493333 489.244444 706.787556 532.48 706.787556c34.588444 0 67.811556-11.036444 95.800889-31.630223l-9.671111-9.671111-27.306667-27.420444zM648.192 426.780444c-31.402667-31.402667-72.476444-48.696889-115.712-48.696888-26.624 0-52.565333 6.599111-75.776 19.000888l10.012444 10.012445 28.672 28.672 10.695112 10.695111c8.419556-2.275556 17.294222-3.527111 26.396444-3.527111 53.930667 0 96.142222 43.690667 96.142222 99.555555 0 8.305778-0.910222 16.270222-2.730666 23.893334l10.922666 10.922666 31.061334 31.061334 10.012444 10.012444c12.401778-23.210667 19.000889-49.152 19.000889-75.776 0-43.463111-17.294222-84.536889-48.696889-115.825778z" fill="#592B0C" /><path d="M681.984 728.746667l-11.150222-11.150223c-41.984 17.635556-88.291556 26.737778-138.24 26.737778-135.850667 0-240.981333-62.236444-312.547556-185.002666l-0.227555-0.341334c-4.437333-6.712889-6.144-13.880889 0.341333-26.851555 34.019556-58.254222 75.434667-102.855111 124.928-133.916445 1.251556-0.796444 2.616889-1.592889 3.982222-2.389333l-10.581333-10.581333-26.396445-26.396445-10.581333-10.581333c-65.536 43.463111-116.849778 104.561778-149.048889 177.493333-4.209778 8.647111-4.323556 24.120889-0.341333 36.181333l0.113778 0.455112 0.227555 0.455111c37.774222 77.255111 89.429333 137.329778 153.372445 178.631111 62.805333 40.391111 138.922667 63.601778 226.304 68.835555h0.682666c69.973333-2.844444 132.323556-17.408 186.823111-43.690666l-10.922666-10.922667-26.737778-26.965333zM909.198222 522.126222c-26.055111-52.110222-54.840889-93.070222-90.453333-128.682666l-0.113778-0.113778C740.807111 319.374222 639.317333 278.755556 532.935111 278.755556c-53.703111 0-106.382222 10.126222-155.648 29.809777-2.161778 0.910222-4.323556 1.820444-6.485333 2.616889l11.150222 11.150222 0.682667 0.682667 28.103111 28.103111 11.491555 11.491556c32.881778-10.467556 68.380444-16.611556 106.837334-18.545778 143.132444 6.940444 245.304889 67.356444 312.433777 184.775111 5.688889 11.491556 5.688889 19.342222 0 30.947556-28.330667 49.493333-62.919111 89.315556-102.968888 119.239111l10.467555 10.467555 26.282667 26.282667 10.353778 10.353778c51.882667-39.594667 94.321778-92.842667 126.976-159.744l0.341333-0.682667 0.227555-0.682667c3.527111-14.563556 4.096-26.737778-3.982222-42.894222z" fill="#592B0C" /></svg>