<?xml version="1.0" standalone="no"?><!DOCTYPE svg PUBLIC "-//W3C//DTD SVG 1.1//EN" "http://www.w3.org/Graphics/SVG/1.1/DTD/svg11.dtd"><svg class="icon" width="200px" height="200.00px" viewBox="0 0 1024 1024" version="1.1" xmlns="http://www.w3.org/2000/svg"><path fill="#ffffff" d="M678.414659 959.067128c-29.04757 0-58.475809-14.053064-85.080747-40.684608L104.826975 429.882747c-33.863249-33.849946-47.302329-71.942519-37.84698-107.238396 9.373485-35.009352 39.674605-61.027935 85.312014-73.265654L819.065026 71.152527c49.921993-13.356193 94.373391-2.020006 118.782314 29.797653 19.918655 25.963325 24.857131 62.732763 13.915941 103.541191l-177.748287 666.247037C759.18524 926.048107 723.453435 959.067128 678.414659 959.067128zM859.62786 121.375371c-7.980765 0-16.767895 1.2689-26.113751 3.765767L166.75542 303.366286c-25.157983 6.739495-41.85834 19.045775-45.801139 33.740452-4.01136 14.980179 4.516874 34.395368 23.385617 53.263088L632.846834 878.870622c15.673981 15.690354 31.856545 24.313755 45.567825 24.313755 26.208918 0 37.833677-32.800034 41.612747-46.879704l177.747263-666.261363c6.345522-23.671119 4.830005-43.209104-4.269233-55.078433C884.883057 123.721813 870.325503 121.375371 859.62786 121.375371zM732.567 652.503011c-1.172709 0-2.360767-0.149403-3.533476-0.449231-7.463995-1.949398-11.952216-9.576099-10.001795-17.041118l1.431605-5.498224c1.952468-7.476275 9.647731-11.909238 17.041118-9.999748 7.463995 1.951445 11.95324 9.578146 9.999748 17.041118l-1.431605 5.498224C744.435305 648.341225 738.774375 652.503011 732.567 652.503011zM693.69569 802.248524c-1.160429 0-2.347464-0.137123-3.520173-0.463558-7.476275-1.937119-11.952216-9.550517-10.013051-17.027815l29.782304-114.695229c1.938142-7.461949 9.577123-12.018731 17.026792-10.013051 7.477298 1.937119 11.952216 9.56382 10.015098 17.027815l-29.783327 114.695229C705.565019 798.073434 699.903066 802.248524 693.69569 802.248524zM373.522624 687.008896c-7.148817 0-14.297634-2.728134-19.754926-8.18645-10.914584-10.914584-10.914584-28.597315 0-39.511899l187.692776-187.707103c10.915607-10.914584 28.596292-10.914584 39.511899 0 10.914584 10.915607 10.914584 28.597315 0 39.511899L393.278573 678.822446C387.821281 684.280762 380.672464 687.008896 373.522624 687.008896z" /></svg>