<?xml version="1.0" standalone="no"?><!DOCTYPE svg PUBLIC "-//W3C//DTD SVG 1.1//EN" "http://www.w3.org/Graphics/SVG/1.1/DTD/svg11.dtd"><svg class="icon" width="200px" height="200.00px" viewBox="0 0 1024 1024" version="1.1" xmlns="http://www.w3.org/2000/svg"><path fill="#ffffff" d="M363.868753 600.282672M512.851902 960.992991 215.02375 960.992991c-44.966121 0-84.409458-38.276768-84.409458-81.926918 0-99.942223 103.813391-247.438509 209.579249-297.758568 12.917194-6.169513 28.41926-0.664126 34.583656 12.283768 6.158257 12.942777 0.652869 28.426423-12.283768 34.58468-95.242178 45.308929-179.981141 178.034812-179.981141 250.89012 0 15.154141 16.10377 30.02892 32.511461 30.02892l297.827129 0c14.33038 0 25.947975 11.618619 25.947975 25.948999C538.799878 949.373349 527.182282 960.992991 512.851902 960.992991zM661.836075 600.282672M810.679032 960.992991 512.851902 960.992991c-14.33038 0-25.948999-11.618619-25.948999-25.947975 0-14.33038 11.618619-25.948999 25.948999-25.948999l297.827129 0c16.408715 0 32.511461-14.874779 32.511461-30.02892 0-72.854285-84.738963-205.580169-179.981141-250.89012-12.936637-6.158257-18.441001-21.640879-12.283768-34.58468 6.157233-12.935614 21.63474-18.453281 34.583656-12.283768 105.763812 50.320059 209.579249 197.816345 209.579249 297.758568C895.08849 922.715199 855.646176 960.992991 810.679032 960.992991zM663.678026 600.282672M516.741489 577.773006c-140.664693 0-255.103072-114.438379-255.103072-255.103072 0-140.659577 114.438379-255.096932 255.103072-255.096932 140.659577 0 255.096932 114.438379 255.096932 255.103072C771.838422 463.33565 657.401066 577.773006 516.741489 577.773006zM516.741489 119.470999c-112.048959 0-203.206098 91.157139-203.206098 203.199958 0 112.049982 91.157139 203.206098 203.206098 203.206098 112.042819 0 203.198935-91.156116 203.198935-203.198935C719.940424 210.627115 628.784308 119.470999 516.741489 119.470999zM663.678026 600.282672M370.520243 335.644433c-7.16519 0-12.974499-5.809309-12.974499-12.974499 0-87.779206 71.41654-159.188582 159.195745-159.188582 7.16519 0 12.975523 5.809309 12.975523 12.974499s-5.810333 12.974499-12.975523 12.974499c-73.474408 0-133.246747 59.772338-133.246747 133.240607C383.494743 329.835124 377.685433 335.644433 370.520243 335.644433zM525.015943 176.233793M397.438313 375.113353c0 7.240915-5.872754 13.113669-13.113669 13.113669-7.234775 0-13.107529-5.872754-13.107529-13.113669 0-7.234775 5.872754-13.107529 13.107529-13.107529C391.565559 362.004801 397.438313 367.877555 397.438313 375.113353z" /></svg>