<?xml version="1.0" standalone="no"?><!DOCTYPE svg PUBLIC "-//W3C//DTD SVG 1.1//EN" "http://www.w3.org/Graphics/SVG/1.1/DTD/svg11.dtd"><svg class="icon" width="200px" height="146.39px" viewBox="0 0 1399 1024" version="1.1" xmlns="http://www.w3.org/2000/svg"><path fill="#ffffff" d="M1349.938269 465.454545c-15.515152 0-31.030303-6.206061-40.339394-21.721212C1173.065542 223.418182 943.441299 93.090909 695.198875 93.090909 450.059481 93.090909 223.538269 223.418182 87.004936 437.527273c-12.412121 21.721212-43.442424 27.927273-65.163637 15.515151-21.721212-12.412121-27.927273-43.442424-15.515151-65.163636C161.477663 145.842424 419.029178 0 695.198875 0c279.272727 0 539.927273 148.945455 691.975758 394.084848 12.412121 21.721212 6.206061 49.648485-15.515152 65.163637-6.206061 3.10303-12.412121 6.206061-21.721212 6.20606z"  /><path fill="#ffffff" d="M682.786754 775.757576c-155.151515 0-279.272727-124.121212-279.272727-279.272728s124.121212-279.272727 279.272727-279.272727 279.272727 124.121212 279.272727 279.272727-124.121212 279.272727-279.272727 279.272728z m0-465.454546c-102.4 0-186.181818 83.781818-186.181818 186.181818s83.781818 186.181818 186.181818 186.181819 186.181818-83.781818 186.181818-186.181819-83.781818-186.181818-186.181818-186.181818z"  /><path fill="#ffffff" d="M695.198875 1024C419.029178 1024 161.477663 878.157576 6.326148 636.121212c-12.412121-21.721212-6.206061-49.648485 15.515151-65.163636 21.721212-12.412121 49.648485-6.206061 65.163637 15.515151C223.538269 803.684848 453.162512 930.909091 698.301905 930.909091c248.242424 0 477.866667-130.327273 614.4-350.642424 12.412121-21.721212 43.442424-27.927273 65.163637-15.515152 21.721212 12.412121 27.927273 43.442424 15.515151 65.163637-158.254545 248.242424-415.806061 394.084848-698.181818 394.084848z"  /></svg>