<?xml version="1.0" standalone="no"?><!DOCTYPE svg PUBLIC "-//W3C//DTD SVG 1.1//EN" "http://www.w3.org/Graphics/SVG/1.1/DTD/svg11.dtd"><svg class="icon" width="200px" height="200.00px" viewBox="0 0 1024 1024" version="1.1" xmlns="http://www.w3.org/2000/svg"><path fill="#ffffff" d="M512 64c-114.7 0-229.3 43.7-316.8 131.2-175 175-175 458.6 0 633.6C282.7 916.3 397.3 960 512 960s229.3-43.7 316.8-131.2c175-175 175-458.6 0-633.6C741.3 107.7 626.7 64 512 64z m273.6 642.4L317.5 238.3C374 198 441.2 176 512 176c89.7 0 174.1 34.9 237.6 98.4 117.5 117.5 129.3 300.9 36 432zM512 848c-89.7 0-174.1-35-237.6-98.4-117.5-117.5-129.3-300.9-36-432l468.1 468.1C650 826 582.8 848 512 848z" /></svg>