<?xml version="1.0" standalone="no"?><!DOCTYPE svg PUBLIC "-//W3C//DTD SVG 1.1//EN" "http://www.w3.org/Graphics/SVG/1.1/DTD/svg11.dtd"><svg class="icon" width="200px" height="200.00px" viewBox="0 0 1024 1024" version="1.1" xmlns="http://www.w3.org/2000/svg"><path fill="#ffffff" d="M776.533333 1024c-128 0-233.244444-105.244444-233.244444-233.244444 0-128 105.244444-233.244444 233.244444-233.244445 128 0 233.244444 105.244444 233.244445 233.244445 0 128-105.244444 233.244444-233.244445 233.244444z m0-406.755556c-45.511111 0-91.022222 17.066667-122.311111 51.2-31.288889 31.288889-51.2 76.8-51.2 122.311112 0 34.133333 8.533333 65.422222 28.444445 93.866666L881.777778 654.222222c-31.288889-22.755556-68.266667-36.977778-105.244445-36.977778z m147.911111 82.488889l-253.155555 230.4c31.288889 22.755556 68.266667 36.977778 105.244444 36.977778 45.511111 0 91.022222-17.066667 122.311111-51.2 31.288889-31.288889 51.2-76.8 51.2-122.311111 0-36.977778-8.533333-68.266667-25.6-93.866667z m-344.177777-167.822222c8.533333 2.844444 14.222222 5.688889 22.755555 8.533333h2.844445c14.222222 0 22.755556 8.533333 28.444444 19.911112 5.688889 11.377778 0 25.6-8.533333 34.133333-8.533333 8.533333-22.755556 8.533333-34.133334 2.844444-2.844444 0-5.688889 0-8.533333-2.844444-39.822222-14.222222-96.711111-28.444444-142.222222-28.444445-201.955556 0-361.244444 170.666667-369.777778 369.777778 0 17.066667-5.688889 28.444444-28.444444 28.444445-17.066667 0-28.444444-14.222222-28.444445-31.288889v-2.844445c5.688889-179.2 122.311111-335.644444 292.977778-395.377777-91.022222-48.355556-153.6-142.222222-153.6-253.155556 0-156.444444 128-281.6 284.444444-281.6s284.444444 125.155556 287.288889 281.6c2.844444 108.088889-56.888889 199.111111-145.066666 250.311111zM440.888889 56.888889c-122.311111 0-227.555556 105.244444-227.555556 227.555555s105.244444 227.555556 227.555556 227.555556 227.555556-105.244444 227.555555-227.555556-105.244444-227.555556-227.555555-227.555555z"  /></svg>