<?xml version="1.0" standalone="no"?><!DOCTYPE svg PUBLIC "-//W3C//DTD SVG 1.1//EN" "http://www.w3.org/Graphics/SVG/1.1/DTD/svg11.dtd"><svg class="icon" width="200px" height="200.00px" viewBox="0 0 1024 1024" version="1.1" xmlns="http://www.w3.org/2000/svg"><path fill="#ffffff" d="M406.975527 955.276802c-4.415566 0-8.832156-1.073448-12.872169-3.221368-9.221012-4.885264-14.886035-14.576997-14.603603-24.993231l2.685155-102.362342L313.258075 824.699861c-52.53654 0-90.039689-43.300178-90.039689-96.509031L223.218386 368.94998c0-51.865251 37.503149-94.053096 90.039689-94.053096l551.675628 0c52.53654 0 100.509135 42.187845 100.509135 94.053096l0 359.240851c0 53.207829-47.972595 96.509031-100.509135 96.509031L597.928556 824.699861 422.989245 950.122409C418.237011 953.532065 412.61292 955.276802 406.975527 955.276802zM313.258075 329.877079c-22.590508 0-35.060517 17.168008-35.060517 39.073924l0 359.240851c0 22.522969 13.221116 41.529859 35.060517 41.529859l97.153714 0c7.42204 0 14.522762 2.979868 19.691481 8.293897 5.180999 5.316076 7.986905 12.510942 7.785314 19.920702l-1.972934 75.275427 137.166009-98.335632c4.671393-3.355421 10.268878-5.154393 16.012695-5.154393l275.839349 0c21.838378 0 45.528939-19.006889 45.528939-41.529859L910.462642 368.94998c0-21.905916-22.939455-39.073924-45.528939-39.073924L313.258075 329.876056zM115.72928 596.539418c-6.483668 0-10.361999-2.281973-15.597233-6.92676-20.106943-17.799388-28.107151-41.180911-28.107151-67.597561L72.024895 162.776294c0-51.865251 37.503149-94.053096 90.039689-94.053096L713.739189 68.723198c52.53654 0 100.509135 42.187845 100.509135 94.053096l0 15.906272c0 15.180747-12.307304 27.490098-27.489074 27.490098-15.180747 0-27.489074-12.308327-27.489074-27.490098l0-15.906272c0-21.905916-22.939455-39.073924-45.529963-39.073924L162.064584 123.70237c-22.590508 0-35.060517 17.168008-35.060517 39.073924l0 359.239827c0 10.523681 1.369184 19.167548 9.584286 26.443255 11.368932 10.067286 11.114129 27.462468 1.046842 38.819121C132.185067 593.398892 123.326305 596.539418 115.72928 596.539418zM492.881059 453.580472 382.922714 453.580472c-7.597025 0-13.745049-6.148024-13.745049-13.745049 0-7.597025 6.148024-13.745049 13.745049-13.745049l109.959368 0c7.598049 0 13.746072 6.148024 13.746072 13.745049C506.627131 447.432449 500.479107 453.580472 492.881059 453.580472zM685.309696 453.580472 547.861254 453.580472c-7.597025 0-13.745049-6.148024-13.745049-13.745049 0-7.597025 6.148024-13.745049 13.745049-13.745049l137.448442 0c7.597025 0 13.745049 6.148024 13.745049 13.745049C699.054745 447.432449 692.906721 453.580472 685.309696 453.580472zM795.269064 453.580472l-54.980195 0c-7.598049 0-13.745049-6.148024-13.745049-13.745049 0-7.597025 6.147-13.745049 13.745049-13.745049l54.980195 0c7.597025 0 13.745049 6.148024 13.745049 13.745049C809.014112 447.432449 802.866089 453.580472 795.269064 453.580472zM437.901887 522.311857l-54.979172 0c-7.597025 0-13.745049-6.148024-13.745049-13.745049s6.148024-13.751189 13.745049-13.751189l54.979172 0c7.597025 0 13.745049 6.154163 13.745049 13.751189S445.498912 522.311857 437.901887 522.311857zM602.840426 522.311857 492.881059 522.311857c-7.598049 0-13.745049-6.148024-13.745049-13.745049s6.147-13.751189 13.745049-13.751189l109.959368 0c7.598049 0 13.745049 6.154163 13.745049 13.751189S610.438475 522.311857 602.840426 522.311857zM795.269064 522.311857 657.820622 522.311857c-7.597025 0-13.745049-6.148024-13.745049-13.745049s6.148024-13.751189 13.745049-13.751189l137.448442 0c7.597025 0 13.745049 6.154163 13.745049 13.751189S802.866089 522.311857 795.269064 522.311857zM520.37218 604.781126 382.922714 604.781126c-7.597025 0-13.745049-6.147-13.745049-13.745049s6.148024-13.746072 13.745049-13.746072l137.449465 0c7.597025 0 13.745049 6.148024 13.745049 13.746072S527.968182 604.781126 520.37218 604.781126zM712.79877 604.781126 575.350328 604.781126c-7.597025 0-13.745049-6.147-13.745049-13.745049s6.148024-13.746072 13.745049-13.746072l137.448442 0c7.598049 0 13.746072 6.148024 13.746072 13.746072S720.396819 604.781126 712.79877 604.781126zM795.269064 604.781126 767.779989 604.781126c-7.598049 0-13.745049-6.147-13.745049-13.745049s6.147-13.746072 13.745049-13.746072l27.489074 0c7.597025 0 13.745049 6.148024 13.745049 13.746072S802.866089 604.781126 795.269064 604.781126zM437.901887 673.505347l-54.979172 0c-7.597025 0-13.745049-6.148024-13.745049-13.745049s6.148024-13.745049 13.745049-13.745049l54.979172 0c7.597025 0 13.745049 6.148024 13.745049 13.745049S445.498912 673.505347 437.901887 673.505347zM589.095377 673.505347l-96.213295 0c-7.598049 0-13.745049-6.148024-13.745049-13.745049s6.147-13.745049 13.745049-13.745049l96.213295 0c7.598049 0 13.746072 6.148024 13.746072 13.745049S596.693426 673.505347 589.095377 673.505347z" /></svg>