<?xml version="1.0" standalone="no"?><!DOCTYPE svg PUBLIC "-//W3C//DTD SVG 1.1//EN" "http://www.w3.org/Graphics/SVG/1.1/DTD/svg11.dtd"><svg class="icon" width="200px" height="200.00px" viewBox="0 0 1024 1024" version="1.1" xmlns="http://www.w3.org/2000/svg"><path fill="#ffffff" d="M827.762105 287.114137 462.272947 287.114137c-63.439868 0-115.061572-51.621704-115.061572-115.061572 0-63.439868 51.621704-115.061572 115.061572-115.061572l365.490182 0c63.439868 0 115.061572 51.621704 115.061572 115.061572C942.824701 235.492432 891.201973 287.114137 827.762105 287.114137zM462.272947 111.137193c-33.590026 0-60.914348 27.324322-60.914348 60.915371 0 33.590026 27.324322 60.914348 60.914348 60.914348l365.490182 0c33.590026 0 60.914348-27.324322 60.914348-60.914348 0-33.591049-27.324322-60.915371-60.914348-60.915371L462.272947 111.137193zM827.762105 923.336346 462.272947 923.336346c-63.439868 0-115.061572-51.620681-115.061572-115.061572 0-63.438844 51.621704-115.060549 115.061572-115.060549l365.490182 0c63.439868 0 115.061572 51.621704 115.061572 115.060549C942.824701 871.715665 891.201973 923.336346 827.762105 923.336346zM462.272947 747.359402c-33.590026 0-60.914348 27.325345-60.914348 60.914348 0 33.591049 27.324322 60.915371 60.914348 60.915371l365.490182 0c33.590026 0 60.914348-27.324322 60.914348-60.915371 0-33.589003-27.324322-60.914348-60.914348-60.914348L462.272947 747.359402zM827.762105 611.993388 462.272947 611.993388c-63.439868 0-115.061572-51.620681-115.061572-115.061572 0-63.439868 51.621704-115.061572 115.061572-115.061572l365.490182 0c63.439868 0 115.061572 51.621704 115.061572 115.061572C942.824701 560.372707 891.201973 611.993388 827.762105 611.993388zM462.272947 436.017468c-33.590026 0-60.914348 27.324322-60.914348 60.914348 0 33.591049 27.324322 60.915371 60.914348 60.915371l365.490182 0c33.590026 0 60.914348-27.324322 60.914348-60.915371 0-33.590026-27.324322-60.914348-60.914348-60.914348L462.272947 436.017468zM178.003602 287.114137l-13.537318 0c-63.439868 0-115.061572-51.621704-115.061572-115.061572 0-63.439868 51.621704-115.061572 115.061572-115.061572l13.537318 0c63.439868 0 115.061572 51.621704 115.061572 115.061572C293.065174 235.492432 241.442446 287.114137 178.003602 287.114137zM164.466284 111.137193c-33.591049 0-60.915371 27.324322-60.915371 60.915371 0 33.590026 27.324322 60.914348 60.915371 60.914348l13.537318 0c33.590026 0 60.914348-27.324322 60.914348-60.914348 0-33.591049-27.324322-60.915371-60.914348-60.915371L164.466284 111.137193zM178.003602 923.336346l-13.537318 0c-63.439868 0-115.061572-51.620681-115.061572-115.061572 0-63.438844 51.621704-115.060549 115.061572-115.060549l13.537318 0c63.439868 0 115.061572 51.621704 115.061572 115.060549C293.065174 871.715665 241.442446 923.336346 178.003602 923.336346zM164.466284 747.359402c-33.591049 0-60.915371 27.325345-60.915371 60.914348 0 33.591049 27.324322 60.915371 60.915371 60.915371l13.537318 0c33.590026 0 60.914348-27.324322 60.914348-60.915371 0-33.589003-27.324322-60.914348-60.914348-60.914348L164.466284 747.359402zM178.003602 611.993388l-13.537318 0c-63.439868 0-115.061572-51.620681-115.061572-115.061572 0-63.439868 51.621704-115.061572 115.061572-115.061572l13.537318 0c63.439868 0 115.061572 51.621704 115.061572 115.061572C293.065174 560.372707 241.442446 611.993388 178.003602 611.993388zM164.466284 436.017468c-33.591049 0-60.915371 27.324322-60.915371 60.914348 0 33.591049 27.324322 60.915371 60.915371 60.915371l13.537318 0c33.590026 0 60.914348-27.324322 60.914348-60.915371 0-33.590026-27.324322-60.914348-60.914348-60.914348L164.466284 436.017468z" /></svg>