<?xml version="1.0" standalone="no"?><!DOCTYPE svg PUBLIC "-//W3C//DTD SVG 1.1//EN" "http://www.w3.org/Graphics/SVG/1.1/DTD/svg11.dtd"><svg class="icon" width="200px" height="200.00px" viewBox="0 0 1024 1024" version="1.1" xmlns="http://www.w3.org/2000/svg"><path fill="#ffffff" d="M265.898667 417.621333H494.933333a17.066667 17.066667 0 1 0 0-34.133333H265.898667a17.066667 17.066667 0 1 0 0 34.133333zM265.898667 533.504H494.933333a17.066667 17.066667 0 0 0 0-34.133333H265.898667a17.066667 17.066667 0 0 0 0 34.133333z"  /><path fill="#ffffff" d="M959.488 354.645333a99.84 99.84 0 0 0-23.722667-127.488 78.677333 78.677333 0 0 0-142.848-64.170666l-11.605333 20.138666a17.066667 17.066667 0 0 0-20.821333 7.168l-32.085334 55.466667H142.677333a46.250667 46.250667 0 0 0-45.909333 46.08v449.194667a46.08 46.08 0 0 0 45.909333 46.08h236.032v73.386666a17.066667 17.066667 0 0 0 8.362667 14.848 17.066667 17.066667 0 0 0 8.704 2.218667 17.066667 17.066667 0 0 0 8.362667-2.218667l156.672-88.234666h248.32a46.08 46.08 0 0 0 46.08-46.08V398.677333L921.6 283.306667a17.066667 17.066667 0 0 0-4.266667-21.504l1.877334-3.413334a65.365333 65.365333 0 0 1 10.410666 79.189334l-53.077333 91.989333a56.832 56.832 0 0 0 20.821333 77.653333 17.066667 17.066667 0 0 0 24.234667-6.314666 17.066667 17.066667 0 0 0-6.997333-23.04 23.04 23.04 0 0 1-8.362667-31.061334z m-138.410667 386.389334a11.946667 11.946667 0 0 1-11.946666 11.946666H556.202667a17.066667 17.066667 0 0 0-8.362667 2.218667l-134.997333 76.117333v-61.269333a17.066667 17.066667 0 0 0-17.066667-17.066667H142.677333a11.946667 11.946667 0 0 1-11.776-11.946666V291.84a11.946667 11.946667 0 0 1 11.776-11.946667h565.930667L574.464 512a17.066667 17.066667 0 0 0-1.706667 12.970667L597.333333 615.253333H265.898667a17.066667 17.066667 0 1 0 0 34.133334h352.938666a17.066667 17.066667 0 0 0 5.802667 0l102.4-35.328a17.066667 17.066667 0 0 0 9.216-7.509334l85.333333-147.968z m-204.8-184.661334l63.829334 36.864-49.322667 17.066667z m206.848-170.666666v1.365333l-108.373333 186.709333-102.4-59.050666L781.482667 221.866667l102.4 59.050666z m76.458667-161.28L887.466667 244.224l-76.970667-44.373333 11.264-19.797334a44.544 44.544 0 1 1 77.141333 44.544z"  /></svg>