<?xml version="1.0" standalone="no"?><!DOCTYPE svg PUBLIC "-//W3C//DTD SVG 1.1//EN" "http://www.w3.org/Graphics/SVG/1.1/DTD/svg11.dtd"><svg class="icon" width="200px" height="200.00px" viewBox="0 0 1024 1024" version="1.1" xmlns="http://www.w3.org/2000/svg"><path fill="#ffffff" d="M933.409261 700.329273l0 0.070608M589.618287 918.821519c-15.380292-6.115278-29.450752-11.709693-56.942897-12.300141l-2.053776-0.047072-1.77032-0.49528c-4.673439-1.322112-12.760628 2.478448-25.377994 8.379854-5.736655 2.691295-12.18246 5.713119-18.874883 8.570189l-0.177032 0.047072c-45.917796 19.003819-111.984491 25.426089-170.331363 19.381419-56.446593-5.855358-106.826004-23.749914-127.731126-53.731762l-3.245927-4.650927 0.554632-5.548366c0.424672-4.342912 1.239224-8.475022 2.478448-12.393261l-10.151197-3.612271 4.273327-13.904685c5.26491-17.234523 13.928221-32.201399 27.916816-43.509956 6.834662-5.500271 14.83794-10.057053 24.198122-13.43294-9.395998-9.184173-18.248619-19.523659-26.477025-31.114648-9.762341-13.763468-18.662035-29.29828-26.558889-46.791699-0.861624 1.1328-1.723248 2.266623-2.608407 3.352351-7.519254 9.371438-16.136515 17.705244-25.130354 25.637913l-0.814552 0.7552-0.791016 0.51984c-17.115819 11.402701-31.338752 12.417821-43.120077 4.650927-10.221806-6.728238-16.360619-19.783579-19.181875-37.962613l-0.059352-0.23536c-7.67275-54.936193 0.661056-102.080933 21.035082-143.346779 19.086707-38.646182 48.703235-71.815629 85.566818-101.159958-0.165776-11.260461 0.141216-22.309098 1.710968-32.720216 1.889023-12.607132 5.595438-24.458041 12.334933-35.082006 1.192152-9.419534 2.667759-18.7439 5.77247-27.196409 3.211135-8.68787 7.909134-16.053628 15.132652-21.129226 9.998725-81.589227 41.196261-152.22396 92.673679-201.611787 49.611931-47.593971 117.625978-75.238588 203.205075-73.822332l0.118704 0c101.407598 2.407839 176.657442 30.761608 227.508597 78.614475 53.17713 50.048883 79.169107 120.754225 80.196507 205.01121 14.117532 12.464893 23.230074 27.881001 27.314089 46.295396 3.977591 17.894555 3.009544 38.315654-2.891863 61.238736 25.603121 35.246759 46.070268 71.579245 59.468416 109.304452 14.258749 40.157605 20.537755 81.872682 16.619516 125.617999-1.239224 26.511817-8.617261 42.943045-20.397562 52.03205-12.784164 9.845229-28.707832 10.340509-46.566572 4.957919l-2.077312-0.636496-1.807159-1.157359c-6.550183-4.226255-13.302981-10.906397-20.597107-20.87033l-0.023536 0.023536c-1.428535-1.959631-2.879584-4.036943-4.368494-6.302543-4.590552 11.70867-9.79611 22.426779-15.568581 32.223912-6.198166 10.506285-13.020548 19.948331-20.408819 28.447912 6.244214 2.479471 12.181437 5.241374 17.753339 8.357342 13.149485 7.317663 24.185842 16.525372 32.284287 28.282137 8.911974 11.143805 12.783141 22.405289 12.783141 33.429367 0 9.466606-2.879584 18.414395-7.825222 26.629497-4.473895 7.364735-10.719132 14.164604-18.060331 20.208251-21.825075 17.941628-54.982242 29.627784-78.685084 29.981848l0 0C651.069871 943.303097 618.326119 930.271292 589.618287 918.821519zM535.167141 876.113835c31.740912 0.89744 47.959292 7.365758 65.665559 14.400988 25.66145 10.221806 54.923914 21.86089 156.980287 15.014972l1.01512 0c17.764596 0 43.343157-9.06547 60.353576-23.041786 4.686742-3.848655 8.593725-8.05035 11.249205-12.441357 2.148943-3.564175 3.399423-7.248078 3.399423-10.859325 0-4.486174-1.923816-9.466606-6.374174-14.872732l-0.590448-0.732687-0.24764-0.354064c-5.26491-7.719822-12.854772-13.975293-22.084994-19.122523-9.986445-5.571902-22.01541-9.914814-35.293831-13.481036l-28.010961-7.506974 22.037922-18.839067c12.287861-10.481725 23.230074-23.324218 32.461319-39.023782 9.419534-15.98302 17.174148-35.105542 22.946618-57.886385l9.809413-38.669718 18.497283 35.317367c7.436366 14.18814 13.857613 24.859177 19.570731 32.69668l0 0.048095c4.155646 5.689582 7.707542 9.56075 10.871605 11.993149 7.577582 2.029216 13.514805 2.196015 16.950044-0.448208 4.720511-3.635807 7.801686-12.725836 8.569166-29.29828l0.059352-0.707105c3.612271-39.260166-2.066055-76.939323-15.002692-113.364931-13.102413-36.875862-33.675984-72.523757-59.597353-107.297748l-4.533246-6.090718 2.159176-7.29515c6.208399-20.986987 7.68503-38.810934 4.439102-53.448306-3.009544-13.550621-10.329253-24.693402-21.907962-33.428344l-6.138814-4.603855 0.048095-7.649214c0.3776-78.945003-22.474874-144.598282-70.671573-189.972703-45.456285-42.777269-113.954355-68.13275-207.336162-70.352301-76.843132-1.251503-137.550773 23.206538-181.438329 65.300238-47.829332 45.893236-76.264964 112.987331-84.410482 190.893678l-1.00284 9.655917-9.089006 3.187599c-2.561335 0.919952-4.367471 3.753487-5.783727 7.577582-2.302439 6.256494-3.458775 15.014972-4.544503 23.914666l-0.460488 3.777023-2.360767 3.258207c-4.981455 6.941086-7.743358 15.652492-9.18315 25.330922-1.641383 10.883885-1.663896 22.805402-1.286296 34.963303l0.25992 7.766894-6.220678 4.768607c-36.119639 27.762297-64.945151 58.972113-82.911338 95.352695-17.717524 35.883255-24.929786 77.197196-18.165732 125.665071l-0.011256 0c1.475608 9.44307 3.375887 15.369036 5.760191 16.950044 0.802272 0.518816 3.588735-0.732687 8.664334-4.061502 7.459902-6.633071 14.57802-13.550621 20.692275-21.175275 5.937223-7.41283 10.954493-15.60542 14.412244-25.024953l14.802124-40.274262 13.999852 40.581254c9.573029 27.786857 21.212114 50.733475 34.574447 69.572542 13.196557 18.627243 28.152177 33.381271 44.500517 44.973284l34.692127 24.599258-42.446741 3.068895c-18.248619 1.298576-31.162744 6.067182-40.192398 13.362332-2.077312 1.677199-3.977591 3.518127-5.700839 5.477758l40.215934-12.323677-40.688701 42.35362c-0.590448 0.613984-1.038656 1.156336-1.345648 1.604544l0.01228 0c-0.236384 0.354064-0.436952 0.731664-0.601704 1.109264l-0.448208 1.086751-0.743944 1.179872c-1.086751 1.746784-1.971911 3.635807-2.620687 5.618974l0 0.047072-0.294712 0.944512c17.788132 19.358907 57.214073 31.469736 102.115726 36.120662 53.778834 5.570879 114.108874-0.095167 155.446351-17.139356l0 0c7.201006-3.068895 12.878309-5.736655 17.930371-8.097422C508.679883 878.262778 520.553305 872.691899 535.167141 876.113835z" /></svg>