<?xml version="1.0" standalone="no"?><!DOCTYPE svg PUBLIC "-//W3C//DTD SVG 1.1//EN" "http://www.w3.org/Graphics/SVG/1.1/DTD/svg11.dtd"><svg class="icon" width="200px" height="200.00px" viewBox="0 0 1024 1024" version="1.1" xmlns="http://www.w3.org/2000/svg"><path fill="#ffffff" d="M507.661693 638.07644c-69.63701 0-126.280078-56.644091-126.280078-126.280078 0-69.644173 56.644091-126.293381 126.280078-126.293381 69.623707 0 126.280078 56.650231 126.280078 126.293381C633.941771 581.433372 577.2854 638.07644 507.661693 638.07644zM507.661693 440.482153c-39.314401 0-71.300906 31.986505-71.300906 71.314209 0 39.314401 31.986505 71.300906 71.300906 71.300906 39.314401 0 71.300906-31.986505 71.300906-71.300906C578.961576 472.468658 546.976094 440.482153 507.661693 440.482153zM511.286244 958.503287l-2.65855 0c-50.173726 0-95.636151-37.772278-111.676475-90.334401-21.449521-6.671956-42.308595-15.329127-62.348-25.852808-20.590967 11.570523-43.36874 17.825994-65.663512 17.825994-28.737508 0-55.180763-10.631128-74.468039-29.919427l-2.362814-2.495844c-34.925441-34.912138-40.187281-93.783966-14.214746-142.361335-10.335393-19.798928-17.516956-40.898479-24.295336-63.019289-52.643987-15.905248-87.824231-59.461253-87.824231-108.856243l0-2.65855c0-49.569976 35.154661-93.39511 87.744413-109.488647 7.127328-23.616884 15.167444-45.214784 25.798573-65.361637-26.711362-48.119951-22.711258-104.508215 12.187577-139.421376l1.744737-1.906419c20.080338-20.100804 48.012504-31.187303 78.763878-31.187303 22.375613 0 44.817742 5.831822 64.831564 16.644075 18.751063-9.69071 38.22765-17.751293 58.227146-24.093744 13.758352-52.965306 59.756989-90.932012 113.555266-90.932012l2.65855 0c53.046147 0 96.629781 37.301558 109.407806 91.059925 20.2543 6.442736 39.98569 14.644535 58.938344 24.503067 19.235087-11.268648 41.114396-17.34197 63.180971-17.34197 31.087019 0 60.039421 11.825326 81.515548 33.295314l1.410116 1.308809c38.105876 38.093597 42.669822 95.328136 13.770632 142.320403 10.04068 19.161409 19.73139 38.670741 26.079982 58.301847 53.677527 12.704346 93.596701 58.166771 93.596701 112.300692l0 2.65855c0 53.851489-39.945781 99.05911-93.676519 111.623263-6.027274 18.321274-14.684444 36.992519-24.483624 55.824423 28.348652 47.327912 22.496363 107.073644-15.905248 145.489582l-2.000564 2.925632c-20.589944 20.562315-48.14758 32.93818-77.207429 32.93818l0.027629 0c-22.00006 0-44.174082-7.54279-63.999616-19.516496-20.201088 10.712993-41.275056 18.96698-62.992683 25.746384C604.063277 921.911904 561.015855 958.503287 511.286244 958.503287zM333.56968 782.826172c4.792143 0 9.584286 1.235131 13.879102 3.759627 25.03314 14.630209 51.771107 25.744337 79.44847 32.991392 10.44284 2.726088 18.322297 11.330046 20.134573 21.961174 5.918803 34.764781 32.980135 61.98575 61.59587 61.98575l2.65855 0c31.368428 0 52.482305-30.952966 57.112766-61.530378 1.63729-10.858302 9.583263-19.690458 20.200064-22.468734 28.323069-7.437389 55.556317-18.832927 80.966033-33.878598 9.906627-5.879917 22.429849-4.940522 31.368428 2.322905 13.597693 11.072173 29.597085 17.165961 45.046962 17.180288l0 0c14.5903 0 27.744901-5.435803 38.040385-15.731286l1.824555-1.838881c22.738887-22.738887 23.127743-60.32083 0.913812-87.434352-7.209192-8.80555-8.242731-21.155832-2.604314-31.03483 14.777565-25.932626 25.517163-51.30141 31.93227-75.435063 2.979868-11.234879 14.147208-19.382443 25.731034-20.348444 35.316344-2.925632 62.389956-28.107151 62.389956-59.83783l0-2.65855c0-32.101115-27.087938-57.576323-62.429865-60.576657-11.556197-0.980327-21.985734-9.114588-24.964578-20.329001-6.927783-26.107611-18.322297-52.254108-33.127492-77.717036-5.785773-9.952676-4.939499-22.449291 2.388397-31.321356 22.659069-27.443026 23.208585-61.791321 1.463328-83.535555l-1.434675-1.301645c-11.67797-11.657504-26.859741-17.764596-43.261293-17.764596-15.82543 0-31.583323 5.684466-44.388976 15.993253-8.858762 7.140631-21.221324 8.094352-31.072693 2.368954-24.523533-14.267958-50.751894-25.154913-77.945233-32.369222-11.114129-2.946099-19.235087-12.496615-20.336164-23.939225-3.409656-35.489282-27.181059-60.274782-57.81066-60.274782l-2.65855 0c-31.798217 0-58.603723 26.047236-62.334697 60.576657-1.221828 11.31572-9.28855 20.704554-20.295232 23.624047-26.589588 7.040347-52.308343 17.630542-76.441996 31.483038-9.341762 5.382591-21.00643 4.777817-29.758768-1.544169-13.892405-10.013051-31.341822-15.757892-47.865147-15.757892-16.066931 0-30.281677 5.369288-40.026622 15.114233l-1.919722 1.906419c-21.985734 21.992897-15.22168 58.649771 2.832512 83.482343 6.469342 8.892531 7.019881 20.791535 1.382487 30.241768-14.375405 24.127514-25.302269 50.945299-33.408901 81.992409-2.710738 10.376325-9.758248 18.228153-20.321838 20.114107-34.872229 6.227842-59.71708 31.825846-59.71708 59.536978l0 2.65855c0 27.435862 24.818245 52.710502 59.650565 58.818617 10.590196 1.851161 18.402115 9.717316 21.113877 20.132526 7.517207 28.77844 18.134009 55.623855 32.281217 79.786161 5.462408 9.314133 4.764514 20.992103-1.489934 29.797653-20.510126 28.830629-20.831444 67.246567-0.63138 87.448678l2.308579 2.482541c10.818393 10.80509 25.03314 13.208836 34.965349 13.208836 16.09456 0 33.691333-6.202259 48.321542-16.980743C322.106604 784.625144 327.824839 782.826172 333.56968 782.826172zM742.075561 436.046121c-5.529947 0-10.738575-3.355421-12.833283-8.826016-34.912138-90.8788-123.796514-151.938458-221.178425-151.944598-7.597025 0-13.745049-6.154163-13.745049-13.745049 0-7.589862 6.148024-13.745049 13.745049-13.745049l0 0c108.670002 0.007163 207.877491 68.154239 246.842944 169.582303 2.710738 7.080256-0.819668 15.033391-7.907087 17.758456C745.376747 435.750385 743.711827 436.046121 742.075561 436.046121zM277.932522 634.373095c-4.65809 0-9.207709-2.376117-11.785417-6.65763-2.738367-4.53734-3.960195-7.892761-6.161327-14.014178-1.060145-2.898003-2.402723-6.643304-4.375657-11.784394-2.725064-7.087419 0.818645-15.033391 7.906064-17.746176 7.074116-2.738367 15.033391 0.819668 17.758456 7.892761 2.053776 5.355985 3.462868 9.261944 4.550643 12.281721 1.99954 5.51869 2.576685 7.04751 3.865028 9.1678 3.920286 6.509251 1.825578 14.953573-4.670369 18.872836C282.792203 633.727389 280.348548 634.373095 277.932522 634.373095zM502.466368 771.498172 502.466368 771.498172c-78.106916 0-151.810544-34.280758-202.199165-94.052073-4.89959-5.812379-4.160763-14.481829 1.650593-19.36914 5.78475-4.898567 14.46955-4.160763 19.36914 1.650593 45.153386 53.555753 111.193475 84.280522 181.179432 84.280522 7.583722 0 13.745049 6.161327 13.745049 13.745049C516.211417 765.350149 510.051113 771.498172 502.466368 771.498172z" /></svg>