<?xml version="1.0" standalone="no"?><!DOCTYPE svg PUBLIC "-//W3C//DTD SVG 1.1//EN" "http://www.w3.org/Graphics/SVG/1.1/DTD/svg11.dtd"><svg class="icon" width="200px" height="200.00px" viewBox="0 0 1024 1024" version="1.1" xmlns="http://www.w3.org/2000/svg"><path fill="#ffffff" d="M215.51289 370.94645c2.566452 1.534959 5.383614 2.25332 8.16803 2.25332 5.476735 0 10.796904-2.800789 13.802354-7.839549 45.552475-76.69373 129.193431-124.343983 218.281445-124.343983 8.856715 0 16.023952-7.166213 16.023952-16.023952s-7.167237-16.023952-16.023952-16.023952c-100.338243 0-194.541765 53.658084-245.838058 140.022057C205.404672 356.596627 207.907679 366.440833 215.51289 370.94645zM196.751594 417.501766c-8.607028-1.987261-17.229406 3.332908-19.24839 11.955286-4.78805 20.451798-7.495718 33.127492-7.495718 55.879682 0 8.856715 7.182586 16.023952 16.023952 16.023952 8.857738 0 16.024975-7.167237 16.024975-16.023952 0-19.309788 2.159176-29.387307 6.650467-48.588625C210.724841 428.125731 205.372949 419.519726 196.751594 417.501766zM947.204451 876.167047 784.053628 713.013153c-0.441045-0.442068-0.893346-0.86367-1.351787-1.272993 41.450041-62.197574 65.652256-136.821155 65.652256-217.013569 0-216.480426-176.10895-392.589376-392.588353-392.589376-216.4661 0-392.589376 176.10895-392.589376 392.589376 0 216.47224 176.123276 392.58119 392.589376 392.58119 78.758762 0 152.117536-23.378453 213.647915-63.470567l-46.695508-46.694485c-49.01125 29.074176-105.971543 46.069245-166.952406 46.069245-181.131337 0-328.493569-147.343813-328.493569-328.48436 0-181.131337 147.361209-328.493569 328.493569-328.493569 181.130314 0 328.493569 147.362232 328.493569 328.493569 0 85.36932-33.002648 162.956396-86.567611 221.433228l36.58422 36.585243c1.251503 1.983167 2.732228 3.860934 4.459568 5.588275l163.15287 163.151847c6.259564 6.259564 14.459317 9.389858 22.659069 9.389858s16.415878-3.130294 22.659069-9.389858C959.724603 908.980383 959.724603 888.684128 947.204451 876.167047z" /></svg>