<?xml version="1.0" standalone="no"?><!DOCTYPE svg PUBLIC "-//W3C//DTD SVG 1.1//EN" "http://www.w3.org/Graphics/SVG/1.1/DTD/svg11.dtd"><svg class="icon" width="200px" height="200.00px" viewBox="0 0 1024 1024" version="1.1" xmlns="http://www.w3.org/2000/svg"><path fill="#ffffff" d="M903.4 654c-1.1-14.5-8-27.9-20.4-36.5-80.4-56.8-128.2-149.6-128.2-247.8 0-25.7 3.2-52 9.7-76.7 4.8-19.3-2.7-39.7-18.8-51.5-44.5-31.6-93.9-53.1-145.9-64.4 0.5-3.2 0.5-7 0.5-10.7 0-47.7-38.6-86.3-86.3-86.3s-86.3 38.6-86.3 86.3c0 3.8 0.5 7 0.5 10.7-52 11.3-101.4 33.3-145.9 64.4-16.1 11.8-23.6 32.2-18.8 51.5 6.4 24.7 9.7 50.9 9.7 76.7 0 98.1-47.7 190.9-128.2 247.8-11.8 8.6-19.3 22-20.4 36.5s4.8 29 16.1 38.6C243.2 784.8 375.6 835.8 514 835.8c137.8 0 270.8-50.9 373.3-143.2 11.2-9.7 17.1-23.6 16.1-38.6zM329 835.8c35.9 65.4 106.2 110.5 185.6 110.5 79.9 0 149.6-44.5 185.6-110.5-59.5 19.8-121.7 30.6-185.6 30.6-63.9-0.1-126.6-10.2-185.6-30.6z" /></svg>