<?xml version="1.0" standalone="no"?><!DOCTYPE svg PUBLIC "-//W3C//DTD SVG 1.1//EN" "http://www.w3.org/Graphics/SVG/1.1/DTD/svg11.dtd"><svg class="icon" width="200px" height="200.00px" viewBox="0 0 1024 1024" version="1.1" xmlns="http://www.w3.org/2000/svg"><path fill="#ffffff" d="M512 178.449067a27.306667 27.306667 0 0 1-27.306667-27.306667V122.88a27.306667 27.306667 0 0 1 54.613334 0v27.306667a27.306667 27.306667 0 0 1-27.306667 28.2624zM753.117867 442.368a133.256533 133.256533 0 1 1 133.256533-133.256533 133.5296 133.5296 0 0 1-133.256533 133.256533z m0-212.036267a78.6432 78.6432 0 1 0 78.6432 78.6432 78.779733 78.779733 0 0 0-78.6432-78.6432z"  /><path fill="#ffffff" d="M840.9088 824.5248H182.954667A79.325867 79.325867 0 0 1 136.533333 681.028267l78.2336-56.5248a37.546667 37.546667 0 0 0 15.5648-30.3104V405.367467A281.8048 281.8048 0 0 1 600.746667 138.171733a27.306667 27.306667 0 1 1-17.339734 51.746134 227.191467 227.191467 0 0 0-298.461866 215.4496v188.689066A92.296533 92.296533 0 0 1 246.852267 669.013333l-78.2336 56.5248a24.712533 24.712533 0 0 0 14.472533 44.6464h657.8176a24.712533 24.712533 0 0 0 14.472533-44.6464L777.0112 669.013333a92.296533 92.296533 0 0 1-38.0928-74.5472v-40.5504a27.306667 27.306667 0 0 1 54.613333 0v40.1408a37.546667 37.546667 0 0 0 15.5648 30.3104L887.466667 681.028267a79.325867 79.325867 0 0 1-46.421334 143.633066z"  /><path fill="#ffffff" d="M512 928.426667a158.788267 158.788267 0 0 1-154.555733-125.064534 27.306667 27.306667 0 1 1 53.248-11.4688 103.492267 103.492267 0 0 0 202.478933 0 27.306667 27.306667 0 1 1 53.384533 11.332267A158.788267 158.788267 0 0 1 512 928.426667z"  /></svg>