<?xml version="1.0" standalone="no"?><!DOCTYPE svg PUBLIC "-//W3C//DTD SVG 1.1//EN" "http://www.w3.org/Graphics/SVG/1.1/DTD/svg11.dtd"><svg class="icon" width="200px" height="200.00px" viewBox="0 0 1024 1024" version="1.1" xmlns="http://www.w3.org/2000/svg"><path fill="#ffffff" d="M511.999488 66.861804c-245.826801 0-445.138196 199.203948-445.138196 445.138196 0 245.826801 199.311395 445.138196 445.138196 445.138196 245.825778 0 445.138196-199.311395 445.138196-445.138196C957.137685 266.065751 757.824243 66.861804 511.999488 66.861804zM484.177839 230.311433c0-15.431457 12.443403-27.821649 27.821649-27.821649s27.821649 12.389168 27.821649 27.821649l0 389.495922c0 15.32401-12.443403 27.821649-27.821649 27.821649s-27.821649-12.497639-27.821649-27.821649L484.177839 230.311433zM511.999488 807.599392c-22.985504 0-41.73145-18.800181-41.73145-41.73145 0-23.039739 18.745946-41.73145 41.73145-41.73145s41.73145 18.692734 41.73145 41.73145C553.730938 788.79921 534.984992 807.599392 511.999488 807.599392z" /></svg>