<?xml version="1.0" standalone="no"?><!DOCTYPE svg PUBLIC "-//W3C//DTD SVG 1.1//EN" "http://www.w3.org/Graphics/SVG/1.1/DTD/svg11.dtd"><svg class="icon" width="200px" height="200.00px" viewBox="0 0 1024 1024" version="1.1" xmlns="http://www.w3.org/2000/svg"><path fill="#ffffff" d="M311.053362 429.167456l-115.276467 1.14201c-8.477069 0.083911-15.281031 7.023974-15.19712 15.500019 0.082888 8.42488 6.939039 15.198144 15.3455 15.198144 0.051165 0 0.103354 0 0.154519-0.001023l115.276467-1.14201c8.477069-0.083911 15.281031-7.023974 15.19712-15.500019C326.470493 435.887508 319.53964 429.081499 311.053362 429.167456zM527.925714 429.980985l-115.276467 1.140986c-8.477069 0.083911-15.281031 7.023974-15.19712 15.500019 0.082888 8.42488 6.939039 15.198144 15.3455 15.198144 0.051165 0 0.103354 0 0.154519-0.001023l115.276467-1.140986c8.477069-0.083911 15.281031-7.023974 15.19712-15.500019C543.343869 436.701037 536.418133 429.870468 527.925714 429.980985zM744.953609 429.979962c-0.052189 0-0.103354 0-0.154519 0.001023l-115.276467 1.140986c-8.477069 0.083911-15.281031 7.023974-15.19712 15.500019 0.082888 8.42488 6.939039 15.198144 15.3455 15.198144 0.052189 0 0.103354 0 0.154519-0.001023l115.276467-1.140986c8.477069-0.083911 15.281031-7.023974 15.19712-15.500019C760.216221 436.752202 753.36007 429.979962 744.953609 429.979962zM956.23871 179.234127c0-58.147328-47.137577-105.284905-105.284905-105.284905-42.637076 0-79.352279 25.345248-95.906304 61.790298L149.677974 135.739521c-46.223764 0-83.830267 37.606503-83.830267 83.830267l0 427.980421c0 46.224788 37.606503 83.83129 83.830267 83.83129l330.699818 0 182.260044 143.860479 24.899086-143.988392 105.659435 0.12689 0.166799 0.001023c46.224788 0 83.83129-37.606503 83.83129-83.83129L877.194446 281.22194C922.645614 269.561365 956.23871 228.321102 956.23871 179.234127zM793.44195 700.682313l-132.258233-0.472767-4.735861 29.68202-15.32708 89.25686L491.034503 700.682313 149.677974 700.682313c-29.296233 0-53.131081-23.834848-53.131081-53.132104L96.546893 219.569788c0-29.296233 23.834848-53.131081 53.131081-53.131081L746.444567 166.438707c-0.508583 4.194532-0.775666 8.463766-0.775666 12.795421 0 56.653301 44.748157 102.847389 100.827383 105.184621l0 363.131461C846.496284 676.820859 822.702368 700.638311 793.44195 700.682313z" /></svg>