<?xml version="1.0" standalone="no"?><!DOCTYPE svg PUBLIC "-//W3C//DTD SVG 1.1//EN" "http://www.w3.org/Graphics/SVG/1.1/DTD/svg11.dtd"><svg class="icon" width="200px" height="200.00px" viewBox="0 0 1024 1024" version="1.1" xmlns="http://www.w3.org/2000/svg"><path fill="#ffffff" d="M309.768089 195.626469c0-12.634762 10.237155-22.881127 22.867824-22.881127 12.631692 0 22.858614 10.246365 22.858614 22.881127 0 12.638855-10.227945 22.874987-22.858614 22.874987C320.012408 218.506573 309.768089 208.265324 309.768089 195.626469L309.768089 195.626469zM215.714993 195.626469c0-12.634762 10.239202-22.881127 22.86987-22.881127 12.624529 0 22.857591 10.246365 22.857591 22.881127 0 12.638855-10.233062 22.874987-22.857591 22.874987C225.954195 218.506573 215.714993 208.265324 215.714993 195.626469L215.714993 195.626469zM650.943492 729.898729 362.098945 729.898729c-29.362748 0-29.362748-37.675064 0-37.675064l288.844547 0C676.146501 692.213431 687.241186 729.898729 650.943492 729.898729zM650.943492 528.963347 362.098945 528.963347c-25.732058 0-27.498284-37.675064 0-37.675064l288.844547 0C682.302711 491.288283 685.390026 528.080234 650.943492 528.963347zM136.046512 918.276097c-7.898901 0-25.117051-17.21815-25.117051-25.117051L110.929462 315.468928l803.741527 0 0 577.689095c0 8.398274-16.718777 25.117051-25.117051 25.117051L136.046512 918.275074zM148.605549 101.975533c18.228153 0 728.391399 0 728.391399 0 8.398274 0 37.675064 16.71366 37.675064 25.117051l0 150.701281L110.929462 277.793864 110.929462 139.650597C109.764939 113.997334 130.376373 101.975533 148.605549 101.975533zM885.261169 64.301492 140.340305 64.301492c-36.989449 0-67.085908 30.117948-67.085908 67.128887l0 757.38985c0 37.009915 30.096459 67.12991 67.085908 67.12991l744.91984 0c36.989449 0 67.085908-30.119995 67.085908-67.12991l0-757.38985C952.347077 94.41944 922.250618 64.301492 885.261169 64.301492L885.261169 64.301492zM885.261169 64.301492" /></svg>