<?xml version="1.0" standalone="no"?><!DOCTYPE svg PUBLIC "-//W3C//DTD SVG 1.1//EN" "http://www.w3.org/Graphics/SVG/1.1/DTD/svg11.dtd"><svg class="icon" width="200px" height="200.00px" viewBox="0 0 1024 1024" version="1.1" xmlns="http://www.w3.org/2000/svg"><path fill="#ffffff" d="M960.35 872.15H64.05V154.12h896.3v718.03z m-860.5-35.83h824.7V189.95H99.85v646.37z"  /><path fill="#ffffff" d="M866.82 737.77H179.58v-35.76h687.24v35.76z m-319.15-113.2h-35.76c0-80.66-65.62-146.27-146.27-146.27s-146.27 65.62-146.27 146.27h-35.76c0-77.57 48.78-143.97 117.27-170.13-21.56-18.36-35.26-45.7-35.26-76.17 0-55.15 44.87-100.03 100.03-100.03s100.03 44.87 100.03 100.03c0 30.47-13.7 57.81-35.26 76.17 68.48 26.16 117.25 92.55 117.25 170.13zM365.64 314c-35.44 0-64.27 28.83-64.27 64.27s28.83 64.27 64.27 64.27 64.27-28.83 64.27-64.27S401.08 314 365.64 314z m501.18 256.47H603.81v-35.76h263.01v35.76z m0-143.73H603.81v-35.76h263.01v35.76z"  /></svg>