<?xml version="1.0" standalone="no"?><!DOCTYPE svg PUBLIC "-//W3C//DTD SVG 1.1//EN" "http://www.w3.org/Graphics/SVG/1.1/DTD/svg11.dtd"><svg class="icon" width="200px" height="200.00px" viewBox="0 0 1024 1024" version="1.1" xmlns="http://www.w3.org/2000/svg"><path fill="#ffffff" d="M957.45184 767.223822c0 52.617381-42.657542 95.2739-95.2739 95.2739L159.307797 862.497723c-52.617381 0-95.274924-42.657542-95.274924-95.2739L64.032874 256.776178c0-52.617381 42.657542-95.2739 95.274924-95.2739l702.869119 0c52.617381 0 95.2739 42.657542 95.2739 95.2739L957.450816 767.223822zM902.472668 256.776178c0-22.255887-18.040888-40.295751-40.295751-40.295751L159.307797 216.480426c-22.254863 0-40.294728 18.039865-40.294728 40.295751l0 510.447644c0 22.25384 18.039865 40.293705 40.294728 40.293705l702.869119 0c22.254863 0 40.295751-18.039865 40.295751-40.293705L902.472668 256.776178zM499.184625 593.525782c-3.072989 0-6.147-1.033539-8.6848-3.086291l-230.42809-187.610912c-5.878894-4.792143-6.765077-13.449313-1.972934-19.342534 4.777817-5.852288 13.450337-6.77838 19.34151-1.972934l221.838458 180.616614L715.734636 389.769145c5.959735-4.737908 14.603603-3.745301 19.316951 2.187829 4.724605 5.946432 3.744277 14.591323-2.188852 19.315928L507.749698 590.532611C505.238504 592.533175 502.218728 593.525782 499.184625 593.525782zM299.883463 651.956565c-3.099594 0-6.214539-1.047866-8.791224-3.194762-5.825682-4.859681-6.617721-13.530155-1.744737-19.355837l6.012947-7.209192c4.845355-5.823636 13.503549-6.615675 19.355837-1.743714 5.824659 4.858658 6.616698 13.531178 1.744737 19.354813l-6.012947 7.209192C307.736315 650.278343 303.830355 651.956565 299.883463 651.956565zM334.983889 609.887424c-3.247974 0-6.509251-1.13894-9.126868-3.461845-5.678326-5.046946-6.187933-13.730723-1.154289-19.410072l77.314877-87.09973c5.060249-5.691629 13.731746-6.187933 19.409049-1.154289 5.677303 5.045923 6.187933 13.730723 1.154289 19.409049l-77.314877 87.100754C342.542029 608.330976 338.770122 609.887424 334.983889 609.887424zM678.661276 635.377982c-3.933589 0-7.838525-1.678222-10.56359-4.925173l-82.685187-98.898451c-4.857635-5.825682-4.093225-14.497179 1.731434-19.36914 5.865591-4.872984 14.510482-4.079922 19.370163 1.731434l82.684164 98.898451c4.858658 5.824659 4.093225 14.497179-1.731434 19.370163C684.889117 634.331139 681.761893 635.377982 678.661276 635.377982z" /></svg>