<?xml version="1.0" standalone="no"?><!DOCTYPE svg PUBLIC "-//W3C//DTD SVG 1.1//EN" "http://www.w3.org/Graphics/SVG/1.1/DTD/svg11.dtd"><svg class="icon" width="200px" height="200.00px" viewBox="0 0 1024 1024" version="1.1" xmlns="http://www.w3.org/2000/svg"><path fill="#ffffff" d="M358.95279 786.859022c0 51.444673-41.707914 93.152587-93.152587 93.152587l-122.786511 0c-51.444673 0-93.152587-41.707914-93.152587-93.152587L49.861106 489.36856c0-51.445696 41.707914-93.152587 93.152587-93.152587l122.786511 0c51.444673 0 93.152587 41.706891 93.152587 93.152587L358.95279 786.859022zM305.197492 489.36856c0-21.759583-17.638729-39.397289-39.397289-39.397289l-122.786511 0c-21.759583 0-39.397289 17.638729-39.397289 39.397289l0 297.490461c0 21.759583 17.638729 39.398312 39.397289 39.398312l122.786511 0c21.759583 0 39.397289-17.638729 39.397289-39.398312L305.197492 489.36856zM224.565057 762.423493c0 12.990872-10.531867 23.5166-23.517623 23.5166l-6.719028 0c-12.985756 0-23.517623-10.525728-23.517623-23.5166l0-6.719028c0-12.992919 10.531867-23.517623 23.517623-23.517623l6.719028 0c12.985756 0 23.517623 10.524704 23.517623 23.517623L224.565057 762.423493zM561.544905 880.484376c-66.878177 0-138.731668-8.491395-163.089425-109.859084-0.48607-2.047636 0.813528-4.15974 0.813528-6.272867L399.269008 424.641373c0-3.753487-0.76134-7.467065 0.76134-10.893094l4.547573-12.021801c7.493671-23.202445 29.338189-58.58428 64.60132-113.350604 24.109094-37.468356 48.846498-76.223009 56.56325-95.711875 13.097296-33.151028 13.045107-77.851089 11.95631-92.260264-0.76134-10.131755 4.199649-19.829628 12.900821-25.066909 2.24411-1.351787 22.638603-13.176091 49.030693-13.176091 16.810874 0 32.324196 4.659113 46.116317 13.833053 37.376259 24.842805 79.228459 63.677275 71.000054 144.007835-2.572592 25.328875-13.189394 49.096185-23.438828 72.088852-6.732331 15.105023-13.083993 29.370935-16.653285 42.862203-0.722454 2.742461-0.801249 10.183943-0.840134 16.417925 29.305443 2.532683 58.807361 4.76349 85.343737 4.76349 16.733103 0 30.342052-0.130983 41.339524-0.249687 14.226003-0.144286 24.109094-0.223081 31.0379 0.026606 5.065366 0.105401 9.828856 0.261966 14.20042 0.852414 29.134551 3.88447 55.027268 18.898419 72.889077 42.24515 17.86181 23.361057 25.552979 52.272527 21.668509 81.420381-3.76679 28.360931-18.530029 54.135968-40.86778 71.774697 9.828856 18.098193 13.713326 38.924521 10.970866 59.476603-3.176342 23.87271-14.672164 45.158503-32.651654 60.749596 0 0.367367 0.025583 0.709151 0.053212 1.011027 6.036483 14.068414 8.149611 29.579689 6.102998 44.98761-2.939959 22.074761-14.606673 42.192961-31.983435 55.908334 4.620227 11.286044 6.155187 23.886013 4.396123 36.968983-3.569292 26.693965-22.5199 49.214888-48.623417 58.099233-15.788591 7.966439-35.735899 9.632381-62.312184 9.632381l0 0c-8.964162 0-18.96391-0.183172-30.067806-0.393973-13.531178-0.248663-28.766161-0.537236-45.880957-0.537236-21.325701 0-41.379433 0.656963-60.776202 1.286296C593.26535 879.95942 576.874031 880.484376 561.544905 880.484376zM453.024306 761.058402c13.438057 56.45785 43.623543 65.671699 110.068861 65.671699 14.789844 0 29.803793-0.511653 46.576805-1.063215 19.84293-0.64366 39.948851-1.312902 62.153572-1.312902 17.482163 0 32.850176 0.289596 46.667879 0.551562 10.748808 0.196475 20.316721 0.38067 28.977985 0.38067l0 0c7.755638 0 31.326473 0 38.386262-4.055362 1.812275-1.036609 3.715625-1.863441 5.710049-2.453888 5.786797-1.705851 12.467963-7.008624 13.477966-14.606673 0.419556-3.13541 0.447185-7.624654-1.785669-11.286044-5.774517-9.448186-7.322779-22.204721-4.185322-34.174334 2.78237-10.602476 8.949836-19.041682 17.402345-23.766286 8.924253-5.0142 14.803147-13.622252 16.140609-23.609721 0.787946-5.957689-0.052189-11.904121-2.440585-17.192567-6.116301-13.478989-7.65126-45.946448 11.246135-59.857273 9.843182-7.192819 16.09149-17.717524 17.691941-29.687136 1.390673-10.460236-1.02433-21.050432-6.798846-29.857005-11.825326-18.031679-5.341658-50.093908 12.598946-62.377676 13.229303-9.016351 21.994943-23.229051 24.095791-39.030945 1.994424-14.921851-1.942235-29.712719-11.089569-41.668005-9.135054-11.943007-22.38994-19.61985-37.311791-21.615297-2.413979-0.327458-4.802376-0.393973-7.16519-0.393973-0.327458 0-1.574868 0-1.902326-0.013303-6.287193-0.249687-15.631002-0.144286-28.504194 0-11.142781 0.105401-24.922622 0.249687-41.878806 0.249687-34.162054 0-71.420633-3.307326-107.444081-6.495948l-8.163937-0.722454c-7.205099-0.629333-13.859659-4.14746-18.438954-9.737782-4.581342-5.603625-6.719028-12.808724-5.919826-20.00052 0.76134-6.78452 0.801249-14.108323 0.853437-21.194718 0.078795-10.853186 0.144286-21.089317 2.638083-30.512944 4.671393-17.690918 12.217253-34.633798 19.528775-51.025117 8.909927-20.00052 17.33583-38.885636 19.041682-55.670927 5.52483-53.859675-20.329001-75.855642-47.284933-93.782943-7.087419-4.685719-16.300244-5.603625-24.227798-4.028757-0.169869 23.058159-2.768043 61.747319-16.207124 95.725178-9.658987 24.384363-34.855856 63.558571-61.549821 105.030102-24.069185 37.376259-54.004985 83.913155-59.21566 101.407598-0.328481 1.088798 0.813528 2.165316 0.354064 3.215228l-2.099824 8.241708L453.021236 761.058402zM680.591231 785.940093c-0.078795 0-0.170892 0-0.248663 0-1.535983 0-2.914376 2.480494-4.173043 2.270716-7.322779-0.11768-13.216-4.76349-13.216-12.112875 0-7.429203 6.010901-12.783141 13.438057-12.783141 4.383844 0 17.705244 0.327458 17.968234 13.531178 0.038886 1.902326-0.393973 1.24741-1.208525 2.90005C691.221336 784.837992 686.313559 785.940093 680.591231 785.940093zM582.281181 795.127336c-32.639375 0-60.606333-6.522554-86.433558-36.274158-4.868891-5.603625-4.26514-14.081717 1.339508-18.950607 5.603625-4.895497 14.081717-4.279467 18.950607 1.338485 26.5374 30.55183 53.452399 28.675086 102.326527 25.25008 6.180769-0.432859 12.624529-0.87902 19.357883-1.272993 7.205099-0.471744 13.766538 5.210675 14.2127 12.625552 0.433882 7.401574-5.210675 13.766538-12.625552 14.20042-6.627954 0.393973-12.979616 0.839111-19.080567 1.258667C606.939791 794.247292 594.288656 795.127336 582.281181 795.127336z" /></svg>