<?xml version="1.0" standalone="no"?><!DOCTYPE svg PUBLIC "-//W3C//DTD SVG 1.1//EN" "http://www.w3.org/Graphics/SVG/1.1/DTD/svg11.dtd"><svg class="icon" width="200px" height="176.86px" viewBox="0 0 1158 1024" version="1.1" xmlns="http://www.w3.org/2000/svg"><path fill="#ffffff" d="M914.51901 341.768819h41.937229v-3.135494A15.93876 15.93876 0 0 0 940.648125 322.825211h-10.321001A15.808114 15.808114 0 0 0 914.51901 338.633325z m244.176576 65.322786v26.129115H711.757081v-26.129115a65.322786 65.322786 0 0 1 65.322786-65.322786h102.556775v-11.627456a41.675938 41.675938 0 0 1 41.675938-41.675938h27.304924a41.675938 41.675938 0 0 1 41.675938 41.675938v11.627456h102.556775a65.322786 65.322786 0 0 1 65.322786 65.322786zM910.599643 745.594284h48.730798V507.949987H910.599643z m-106.998724 0h48.730798V507.949987h-48.730798z m-76.035724 28.088798V461.962746h414.799694v311.720336a60.880837 60.880837 0 0 1-60.750191 60.750192H788.315387a60.750191 60.750191 0 0 1-60.750192-60.750192z m336.934933-28.088798V507.949987h-48.730799v237.644297z"  /><path fill="#ffffff" d="M0 962.465935v-901.454452C0 27.566216 31.746874 0 70.940546 0h751.212044c39.193672 0 70.940546 27.566216 70.940546 61.534065v187.868334H849.196224V107.782598C849.196224 77.211534 820.062261 52.258229 784.787956 52.258229H108.30518C73.030875 52.258229 44.419495 77.211534 44.419495 107.782598v808.56545c0 30.571064 28.61138 55.263077 63.885685 55.263077h676.482776c35.274305 0 63.885685-24.692013 63.885685-55.263077V888.389895h44.419495v73.945395c0 33.967849-31.746874 61.534065-70.940546 61.534064H70.940546c-39.193672 0.130646-70.940546-27.43557-70.940546-61.403419z"  /><path fill="#ffffff" d="M161.085991 613.903547h285.591223v77.864761H161.085991zM161.085991 417.804542h285.591223v77.995407H161.085991zM161.085991 210.470018h285.591223v77.995407H161.085991z"  /></svg>